# xmcd
#
# Track frame offsets:
#	150
#	17885
#	35932
#	52639
#	68920
#	84385
#	101652
#	118170
#	132972
#	148730
#	170987
#	188310
#	208465
#
# Disc length: 3004 seconds
#
# Revision: 0
# Processed by: cddbd v1.4b42PL1 Copyright (c) Steve Scherf et al.
# Submitted via: EasyCDDAExtractor 4.5.0.2
#
DISCID=c10bba0d
DTITLE=Candeeiro - Marca do Pago
DYEAR=1900
DGENRE=
TTITLE0=Todo Mundo Veio Pro Rodeio
TTITLE1=Marca do Pago
TTITLE2=Baile do Pago
TTITLE3=Xote da Primavera
TTITLE4=Tô Chegando no Pedaço
TTITLE5=Linda Flor
TTITLE6=À Moda Campeira
TTITLE7=Nas Pegadas do Bailão
TTITLE8=Xucro Minuano
TTITLE9=Da Serra À Santo Tomé
TTITLE10=Que Saudade
TTITLE11=Rio Grande Tchê
TTITLE12=Dom Pegorine
EXTD=
EXTT0=
EXTT1=
EXTT2=
EXTT3=
EXTT4=
EXTT5=
EXTT6=
EXTT7=
EXTT8=
EXTT9=
EXTT10=
EXTT11=
EXTT12=
PLAYORDER=
